<?xml version="1.0" encoding="utf-8"?>
<svg xmlns="http://www.w3.org/2000/svg"
	 xmlns:xlink="http://www.w3.org/1999/xlink"
	 width="250px"
	 height="200px"
	 viewBox="0 0 250 200">
<path fill="url(#SVGID_1_)" d="M180.015,78.348c0,28.992-23.503,52.499-52.497,52.499S75.021,107.34,75.021,78.348
	c0-28.993,23.502-52.497,52.496-52.497S180.015,49.355,180.015,78.348z M187.518,78.348c0,33.134-26.865,60-60,60s-60-26.865-60-60
	c0-33.135,26.865-60,60-60S187.518,45.212,187.518,78.348z M182.568,78.348c0-30.401-24.65-55.048-55.051-55.048
	c-30.399,0-55.05,24.648-55.05,55.048c0,30.4,24.652,55.048,55.05,55.048C157.918,133.396,182.568,108.748,182.568,78.348z"/>
<defs>
	<linearGradient id="SVGID_1_" gradientUnits="userSpaceOnUse" x1="227.5176" y1="729.3477" x2="227.5176" y2="609.3486" gradientTransform="matrix(1 0 0 1 -100 -591)">
		<stop offset="0" style="stop-color: #D14427"/>
		<stop offset="1" style="stop-color: #E55225"/>
	</linearGradient>
		<linearGradient id="SVGID_4_" gradientUnits="userSpaceOnUse" x1="205.3828" y1="651.2607" x2="214" y2="651.2607" gradientTransform="matrix(1 0 0 1 -100 -591)">
		<stop offset="0.0056" style="stop-color: #6176B9"/>
		<stop offset="0.691" style="stop-color: #394A9F"/>
	</linearGradient>
	<path fill="url(#SVGID_4_)" d="M114,58.991c0,0-2.87-1.298-5.662,0.456c-2.786,1.751-2.683,3.543-2.683,3.543
		s-1.481-3.302,2.467-4.919C112.075,56.452,114,58.991,114,58.991z"/>
		<linearGradient id="SVGID_5_" gradientUnits="userSpaceOnUse" x1="232.4912" y1="648.6367" x2="240.3398" y2="648.6367" gradientTransform="matrix(1 0 0 1 -100 -591)">
		<stop offset="0.0056" style="stop-color: #6176B9"/>
		<stop offset="0.691" style="stop-color: #394A9F"/>
	</linearGradient>
	<path id="SVGID_2_" d="M180.221,78.206c0,29.06-23.64,52.699-52.703,52.699c-29.057,0-52.695-23.642-52.695-52.699
		c0-29.056,23.64-52.694,52.695-52.694C156.581,25.511,180.221,49.15,180.221,78.206z"/>
	<clipPath id="SVGID_3_">
		<use xlink:href="#SVGID_2_" overflow="visible"/>
	</clipPath>
</defs>

<g clip-path="url(#SVGID_3_)">
	<path fill="#B5B5B5" d="M148.602,154.976c-1.811-8.333-12.331-27.193-16.319-35.168c-3.987-7.976-7.984-19.22-6.164-26.473
		c0.329-1.319-3.456-11.372-2.368-12.083c8.461-5.521,10.695,0.602,14.083-1.874c1.748-1.28,4.113,1.053,4.72-1.065
		c2.171-7.611-3.022-20.878-8.817-26.678c-1.896-1.89-4.801-3.077-8.077-3.707c-1.261-1.723-3.293-3.38-6.172-4.907
		c-3.207-1.707-10.179-3.96-13.795-4.561c-2.506-0.413-3.073,0.289-4.143,0.463c0.998,0.088,5.731,2.428,6.653,2.564
		c-0.921,0.622-3.627-0.029-5.354,0.746c-0.87,0.393-1.521,1.888-1.515,2.595c4.938-0.499,12.646-0.016,17.198,2.011
		c-3.623,0.413-9.132,0.872-11.501,2.117c-6.887,3.629-9.929,12.104-8.116,22.259c1.814,10.133,9.793,47.116,12.332,59.466
		c2.54,12.332-5.438,20.305-10.515,22.48l5.439,0.366l-1.812,3.99c6.521,0.722,13.773-1.451,13.773-1.451
		c-1.446,3.987-11.24,5.443-11.24,5.443s4.718,1.444,12.328-1.456c7.618-2.899,12.331-4.715,12.331-4.715l3.627,9.427
		l6.894-6.885l2.899,7.252C144.974,165.135,150.415,163.317,148.602,154.976z"/>
	<path fill="#fff" d="M150.792,153.284c-1.805-8.336-12.325-27.197-16.319-35.173c-3.989-7.98-7.977-19.221-6.163-26.471
		c0.336-1.316,0.342-6.706,1.436-7.421c8.458-5.525,7.859-0.185,11.249-2.66c1.75-1.277,3.15-2.821,3.76-4.94
		c2.177-7.615-3.023-20.878-8.823-26.68c-1.89-1.89-4.795-3.08-8.071-3.707c-1.259-1.727-3.29-3.38-6.168-4.909
		c-5.422-2.879-12.143-4.029-18.37-2.899c0.996,0.091,3.274,2.149,4.192,2.286c-1.389,0.941-5.082,0.821-5.058,2.913
		c4.944-0.495,10.361,0.287,14.918,2.311c-3.623,0.412-6.995,1.306-9.364,2.557c-6.893,3.622-8.706,10.874-6.893,21.034
		c1.817,10.153,9.797,47.137,12.326,59.464c2.541,12.327-5.433,20.304-10.508,22.479l5.438,0.362l-1.811,3.995
		c6.521,0.72,13.773-1.453,13.773-1.453c-1.446,3.994-11.24,5.438-11.24,5.438s4.712,1.452,12.328-1.454
		c7.622-2.898,12.335-4.709,12.335-4.709l3.622,9.427l6.893-6.889l2.905,7.252C147.176,163.438,152.611,161.622,150.792,153.284
		z"/>
	<path fill="#2d4f8e" d="M109.106,70.027c0-2.104,1.703-3.809,3.811-3.809c2.102,0,3.807,1.705,3.807,3.809
		c0,2.106-1.705,3.809-3.807,3.809C110.809,73.835,109.106,72.133,109.106,70.027z"/>
	<path fill="#fff" d="M113.618,68.758c0-0.548,0.444-0.99,0.985-0.99c0.546,0,0.99,0.441,0.99,0.99
		c0,0.546-0.444,0.989-0.99,0.989C114.063,69.748,113.618,69.304,113.618,68.758z"/>
	<path fill="#2d4f8e" d="M135.1,67.768c0-1.803,1.47-3.269,3.271-3.269c1.812,0,3.274,1.465,3.274,3.269
		c0,1.811-1.463,3.276-3.274,3.276C136.569,71.044,135.1,69.579,135.1,67.768z"/>
	<path fill="#fff" d="M138.979,66.68c0-0.466,0.381-0.847,0.842-0.847c0.479,0,0.849,0.381,0.849,0.847
		c0,0.471-0.369,0.846-0.849,0.846C139.36,67.526,138.979,67.151,138.979,66.68z"/>
	<path fill="url(#SVGID_5_)" d="M140.34,58.729c0,0-2.062-1.178-3.663-1.158c-3.286,0.043-4.186,1.496-4.186,1.496
		s0.552-3.464,4.761-2.77C139.531,56.677,140.34,58.729,140.34,58.729z"/>
</g>
<path fill="#FDD20A" d="M124.573,84.714c0.381-2.304,6.335-6.663,10.55-6.926c4.226-0.266,5.541-0.207,9.062-1.049
	c3.527-0.842,12.606-3.105,15.118-4.266c2.519-1.163,13.177,0.575,5.663,4.765c-3.253,1.819-12.013,5.16-18.275,7.028
	c-6.254,1.871-10.047-1.787-12.127,1.289c-1.654,2.445-0.336,5.794,7.138,6.489c10.095,0.936,19.772-4.546,20.837-1.634
	c1.07,2.912-8.674,6.545-14.61,6.661c-5.924,0.112-17.878-3.918-19.664-5.166C126.469,90.658,124.077,87.75,124.573,84.714z"/>
<path fill="#65BC46" d="M129.142,116.189c0,0-14.18-7.563-14.411-4.495c-0.24,3.072,0,15.597,1.652,16.545
	c1.655,0.943,13.472-6.144,13.472-6.144L129.142,116.189z"/>
<path fill="#65BC46" d="M134.575,115.713c0,0,9.689-7.327,11.821-6.854c2.123,0.479,2.597,15.599,0.705,16.315
	c-1.892,0.701-12.982-3.838-12.982-3.838L134.575,115.713z"/>
<path fill="#43A244" d="M125.709,116.99c0,4.959-0.713,7.089,1.418,7.56c2.124,0.476,6.14,0,7.561-0.943
	c1.418-0.947,0.233-7.323-0.238-8.514C133.974,113.915,125.709,114.864,125.709,116.99z"/>
<path fill="#65BC46" d="M126.61,115.888c0,4.961-0.711,7.09,1.418,7.562c2.122,0.476,6.14,0,7.561-0.944
	c1.418-0.947,0.233-7.321-0.24-8.514C134.876,112.813,126.61,113.764,126.61,115.888z"/>
</svg>
